<svg width="25" height="24" viewBox="0 0 25 24" fill="none" xmlns="http://www.w3.org/2000/svg">
<path d="M18.3593 8.31982L10.6797 15.9994C10.6351 16.044 10.5822 16.0794 10.5239 16.1036C10.4656 16.1277 10.4032 16.1401 10.3401 16.1401C10.277 16.1401 10.2146 16.1277 10.1563 16.1036C10.098 16.0794 10.0451 16.044 10.0005 15.9994L6.64066 12.6396C6.5506 12.5495 6.5 12.4274 6.5 12.3C6.5 12.1726 6.5506 12.0505 6.64066 11.9604C6.73072 11.8703 6.85288 11.8197 6.98025 11.8197C7.10761 11.8197 7.22977 11.8703 7.31983 11.9604L10.3401 14.9812L17.6802 7.64066C17.7702 7.5506 17.8924 7.5 18.0198 7.5C18.1471 7.5 18.2693 7.5506 18.3593 7.64066C18.4494 7.73072 18.5 7.85287 18.5 7.98024C18.5 8.10761 18.4494 8.22976 18.3593 8.31982Z" fill="#4E944F"/>
<path d="M24.5 12C24.5 18.6274 19.1274 24 12.5 24C5.87258 24 0.5 18.6274 0.5 12C0.5 5.37258 5.87258 0 12.5 0C19.1274 0 24.5 5.37258 24.5 12ZM2.14265 12C2.14265 17.7202 6.7798 22.3573 12.5 22.3573C18.2202 22.3573 22.8573 17.7202 22.8573 12C22.8573 6.2798 18.2202 1.64265 12.5 1.64265C6.7798 1.64265 2.14265 6.2798 2.14265 12Z" fill="#AAF6AA"/>
</svg>
