<svg width="32" height="32" viewBox="0 0 32 32" fill="none" xmlns="http://www.w3.org/2000/svg">
<rect width="32" height="32" rx="4.26667" fill="#DE3030" fill-opacity="0.1"/>
<g clip-path="url(#clip0_3148_51047)">
<path d="M10.8522 15.0355L8.02301 12.5855L5.19385 15.0355V3.50049H10.8522V15.0355Z" fill="#DE3030"/>
<path d="M26.4318 9.36023H23.5572C22.4305 9.36023 21.5161 8.45523 21.5161 7.34023V4.49023H22.2638V7.33523C22.2638 8.04023 22.8448 8.61523 23.5572 8.61523H26.4318V9.36023Z" fill="#DE3030"/>
<path d="M24.7634 28.5006H9.68801C8.5614 28.5006 7.64697 27.5956 7.64697 26.4806V13.8906H8.39468V26.4806C8.39468 27.1856 8.97567 27.7606 9.68801 27.7606H24.7584C25.4707 27.7606 26.0517 27.1856 26.0517 26.4806V9.14061L21.9141 4.86561H11.6432V4.12061H22.2374L26.7994 8.84061V26.4806C26.8045 27.5956 25.89 28.5006 24.7634 28.5006Z" fill="#DE3030"/>
<path d="M24.472 17.6055H9.93213V18.3455H24.472V17.6055Z" fill="#DE3030"/>
<path d="M20.2788 19.5103H9.93213V20.2503H20.2788V19.5103Z" fill="#DE3030"/>
<path d="M16.7474 21.4106H9.93213V22.1506H16.7474V21.4106Z" fill="#DE3030"/>
<path d="M23.9466 23.3154H9.93213V24.0554H23.9466V23.3154Z" fill="#DE3030"/>
<path d="M22.8048 25.2207H9.93213V25.9607H22.8048V25.2207Z" fill="#DE3030"/>
<path d="M13.4662 13.9453V15.2503H12.8853V11.8003H14.219C14.603 11.8003 14.9061 11.9003 15.1233 12.0953C15.3406 12.2903 15.4517 12.5503 15.4517 12.8703C15.4517 13.1953 15.3406 13.4553 15.1233 13.6503C14.9061 13.8453 14.603 13.9403 14.219 13.9403H13.4662V13.9453ZM13.4662 13.4853H14.219C14.4362 13.4853 14.5979 13.4303 14.704 13.3153C14.8101 13.2003 14.8657 13.0553 14.8657 12.8803C14.8657 12.7053 14.8101 12.5603 14.704 12.4403C14.5979 12.3253 14.4312 12.2653 14.219 12.2653H13.4662V13.4853Z" fill="#DE3030"/>
<path d="M16.1489 15.2552V11.8052H17.3008C17.7403 11.8052 18.1041 11.9402 18.3769 12.2152C18.6548 12.4902 18.7912 12.8402 18.7912 13.2702V13.7952C18.7912 14.2252 18.6548 14.5752 18.3769 14.8502C18.099 15.1202 17.7403 15.2552 17.3008 15.2552H16.1489ZM16.735 12.2652V14.7902H17.3059C17.5837 14.7902 17.806 14.6952 17.9727 14.5102C18.1394 14.3252 18.2203 14.0852 18.2203 13.7902V13.2602C18.2203 12.9702 18.1394 12.7302 17.9727 12.5452C17.806 12.3602 17.5888 12.2652 17.3059 12.2652H16.735Z" fill="#DE3030"/>
<path d="M21.5699 13.7852H20.1655V15.2552H19.5845V11.8052H21.8124V12.2652H20.1655V13.3202H21.5699V13.7852Z" fill="#DE3030"/>
</g>
<defs>
<clipPath id="clip0_3148_51047">
<rect width="25.8667" height="25.6" fill="white" transform="translate(3.06689 3.2002)"/>
</clipPath>
</defs>
</svg>
