<svg width="33" height="33" viewBox="0 0 33 33" fill="none" xmlns="http://www.w3.org/2000/svg">
<path d="M22.1179 5.64252L22.1178 5.64245L16.9667 1.56477C16.9665 1.56458 16.9662 1.56438 16.966 1.56419C16.6919 1.35009 16.3074 1.35013 16.0334 1.56431C16.0332 1.56446 16.033 1.56461 16.0328 1.56477L12.3623 4.47057L12.3622 4.47064L3.14721 11.7606L3.14718 11.7606L1.79763 12.8285C1.79744 12.8287 1.79724 12.8288 1.79704 12.829C1.36041 13.1776 1.10548 13.706 1.10433 14.2658V30.3305C1.10433 31.3445 1.92634 32.1665 2.94037 32.1665H30.0591C31.0731 32.1665 31.8952 31.3445 31.8952 30.3305L31.8952 14.2661L31.8952 14.2655M22.1179 5.64252L31.4097 12.568C31.926 12.9798 32.2272 13.6048 32.2285 14.2655H31.8952M22.1179 5.64252L29.8523 11.7606L29.8523 11.7606L31.2018 12.8285C31.202 12.8287 31.2022 12.8288 31.2023 12.8289M22.1179 5.64252L31.2023 12.8289M31.8952 14.2655C31.8939 13.7063 31.6389 13.1775 31.2023 12.8289M31.8952 14.2655L31.2023 12.8289" fill="#E3E3E3" stroke="#5D5D5D" stroke-width="0.666667"/>
<path d="M29.7925 25.364L3.2071 25.4228V6.46679C3.20872 6.0155 3.57416 5.64964 4.02587 5.64801H28.9737C29.425 5.64964 29.7908 6.01499 29.7925 6.46663C29.7925 6.46682 29.7925 6.467 29.7925 6.46718L29.7925 25.364Z" fill="#E5E5E5" stroke="#5D5D5D" stroke-width="0.533333"/>
<path d="M13.686 5.38135H11.9829V6.4526H13.686V5.38135Z" fill="#ECF0F1"/>
<path d="M16.0327 21.0641L16.0337 21.0633C16.308 20.8485 16.6933 20.8485 16.9676 21.0633L16.9687 21.0641L21.0742 24.2534L21.0743 24.2535L30.9535 31.9326C30.6825 32.0848 30.375 32.1666 30.0596 32.1669H2.94129C2.62626 32.1669 2.31878 32.0851 2.04771 31.9326L11.927 24.2535L11.9271 24.2534L16.0327 21.0641Z" fill="#E3E3E3" stroke="#5D5D5D" stroke-width="0.666667"/>
<path d="M31.8961 30.3306L31.8961 30.332C31.8979 30.7599 31.748 31.1712 31.4778 31.4954L21.8049 23.9767L31.8961 15.2798L31.8961 30.3306ZM1.10532 30.3306V15.2804L11.1962 23.977L1.52365 31.4954C1.25345 31.1712 1.10358 30.7599 1.10532 30.332V30.3306Z" fill="#E3E3E3" stroke="#5D5D5D" stroke-width="0.666667"/>
<path d="M21.2904 20.2108C20.2534 20.2056 19.2224 20.0432 18.234 19.7289C16.6546 19.2006 15.4814 17.8633 15.1634 16.2282C14.8148 14.5497 15.45 12.7754 16.9052 11.3588C17.0616 11.2069 17.2239 11.061 17.3923 10.9218C18.8819 9.67432 20.8908 9.24028 22.7628 9.76262C24.5749 10.3411 25.8267 11.9979 25.8895 13.8994C25.9576 14.9942 25.6007 16.0725 24.8937 16.9107C24.3482 17.5976 23.4646 17.9217 22.605 17.7511C22.2533 17.6777 21.9465 17.4652 21.755 17.1606C21.5829 16.865 21.5388 16.5126 21.633 16.1841C22.0378 14.6537 22.4493 12.3286 22.4538 12.3055C22.498 12.054 22.7381 11.8856 22.9903 11.9298C23.2424 11.9739 23.41 12.2142 23.3659 12.4663C23.3487 12.5629 22.9431 14.8535 22.5286 16.4205C22.4995 16.5073 22.5069 16.6024 22.5496 16.6839C22.6139 16.7722 22.7105 16.8321 22.8182 16.8493C23.3449 16.9376 23.8769 16.7258 24.1994 16.3008C24.7485 15.6438 25.0239 14.8004 24.9677 13.9465C24.9229 12.4327 23.93 11.1111 22.489 10.6464C20.9163 10.2139 19.2314 10.5835 17.9841 11.6349C17.8352 11.7584 17.6908 11.8879 17.5517 12.0226C16.8326 12.7223 15.6834 14.1748 16.071 16.0404C16.3314 17.3432 17.2614 18.4111 18.5168 18.8474C20.6873 19.5396 23.8066 19.6234 25.4488 17.5804C25.6134 17.3851 25.9052 17.3597 26.1005 17.5243C26.2898 17.6837 26.3205 17.9636 26.1701 18.1604C24.955 19.672 23.1055 20.2123 21.2919 20.2123L21.2904 20.2108Z" fill="#5D5D5D"/>
<path d="M19.7056 17.8103C19.2163 17.8185 18.7389 17.6584 18.3544 17.3561C17.4663 16.6451 17.4416 15.4096 17.6907 14.5685C17.7753 14.2886 17.8875 14.0178 18.0274 13.7611C18.3746 13.0606 18.9297 12.4844 19.6173 12.111C20.4733 11.6672 21.5185 11.8356 22.1919 12.5256C22.5255 12.8915 22.7777 13.3248 22.9296 13.7962C23.0104 14.0387 22.8794 14.3006 22.637 14.3814C22.4014 14.46 22.1462 14.3388 22.0579 14.1061C21.9479 13.7581 21.7661 13.437 21.523 13.1639C21.1302 12.7621 20.5189 12.6708 20.0266 12.9402C19.5111 13.2305 19.0973 13.672 18.8399 14.2048C18.7315 14.4046 18.6447 14.6149 18.5796 14.8327C18.3993 15.4411 18.4397 16.2351 18.9357 16.6324C19.4782 17.0687 20.3932 16.8839 20.9087 16.4401C21.2925 16.0944 21.6217 15.6933 21.8866 15.2495C22.0213 15.0325 22.3071 14.9651 22.5241 15.1006C22.741 15.2353 22.8084 15.5211 22.6729 15.7382C22.3595 16.2605 21.9689 16.7327 21.5147 17.139C21.009 17.5663 20.37 17.8028 19.7079 17.8095L19.7056 17.8103Z" fill="#5D5D5D"/>
<path d="M8.74364 2.65751C10.7948 2.64685 12.4711 4.30721 12.4818 6.35845L12.4853 6.98297C12.973 6.83461 13.4687 6.70402 13.9715 6.59209V6.35045C13.9555 3.47925 11.6077 1.15528 8.73654 1.1695C7.30098 1.17661 6.00222 1.76737 5.06413 2.71526C4.12604 3.66314 3.54862 4.96726 3.55573 6.40375L3.6188 18.8018C3.62946 20.853 5.30576 22.5125 7.35694 22.5027C9.40812 22.4921 11.0675 20.8157 11.0578 18.7645L10.9947 6.36644C10.992 5.77035 10.7566 5.21067 10.3329 4.79137C9.90914 4.37206 9.34771 4.14286 8.75164 4.14552C7.52128 4.15174 6.52545 5.15826 6.53167 6.38865L6.58231 16.3073L8.07028 16.3002L8.02053 6.38154C8.01875 5.97112 8.35011 5.6362 8.76052 5.63354C8.95773 5.63176 9.14784 5.70905 9.28731 5.84852C9.42766 5.98711 9.50761 6.17633 9.50761 6.37355L9.57069 18.7716C9.5769 20.002 8.58107 21.0085 7.35072 21.0147C6.12037 21.0209 5.11388 20.0251 5.10766 18.7947L5.04459 6.39664C5.03393 4.34541 6.69424 2.66906 8.74542 2.6584L8.74364 2.65751Z" fill="#5D5D5D"/>
</svg>
