<svg width="28" height="28" viewBox="0 0 28 28" fill="none" xmlns="http://www.w3.org/2000/svg">
<path d="M18.6785 4.49964L18.6786 4.49971L25.4461 9.85304L25.4462 9.85307L26.627 10.7875C26.6271 10.7875 26.6272 10.7876 26.6273 10.7877C27.0095 11.0928 27.2327 11.5558 27.2336 12.0453V26.1017C27.2336 26.9889 26.5144 27.7082 25.6271 27.7082H1.8982C1.01093 27.7082 0.291667 26.9889 0.291667 26.1017V12.0451C0.29267 11.5552 0.515779 11.0929 0.897901 10.7878C0.898036 10.7877 0.898171 10.7876 0.898305 10.7875L2.07916 9.85306L2.07919 9.85304L10.1423 3.47431L10.1424 3.47425L13.3541 0.931671C13.3542 0.931539 13.3544 0.931408 13.3546 0.931277C13.5943 0.743843 13.9309 0.743828 14.1707 0.931231C14.1709 0.931378 14.1711 0.931524 14.1712 0.931671L18.6785 4.49964Z" fill="#E3E3E3" stroke="#5D5D5D" stroke-width="0.583333"/>
<path d="M25.3935 21.7561L2.13128 21.8075V5.22101C2.1327 4.82612 2.45246 4.50599 2.84771 4.50457H24.6771C25.0719 4.50599 25.392 4.82564 25.3935 5.2208C25.3935 5.22098 25.3935 5.22116 25.3935 5.22135L25.3935 21.7561Z" fill="#E5E5E5" stroke="#5D5D5D" stroke-width="0.466667"/>
<path d="M11.3003 4.27124H9.81006V5.20858H11.3003V4.27124Z" fill="#ECF0F1"/>
<path d="M13.3548 17.993L13.3539 17.9937L9.76153 20.7843L9.76147 20.7844L1.11706 27.5036C1.35425 27.637 1.62329 27.7086 1.89894 27.7086L25.6275 27.7086L25.6278 27.7086M13.3548 17.993L26.6561 27.6952C26.3517 27.8929 25.9948 27.9999 25.6278 28.0003V27.7086M13.3548 17.993C13.5948 17.805 13.932 17.805 14.172 17.993L14.1729 17.9937L17.7653 20.7843L17.7653 20.7844L26.4096 27.5036M13.3548 17.993L26.4096 27.5036M25.6278 27.7086C25.9036 27.7082 26.1726 27.6367 26.4096 27.5036M25.6278 27.7086L26.4096 27.5036" fill="#E3E3E3" stroke="#5D5D5D" stroke-width="0.583333"/>
<path d="M27.2341 26.1018L27.2341 26.1029C27.2357 26.4773 27.1045 26.8373 26.8681 27.121L18.4043 20.5421L27.2341 12.9323L27.2341 26.1018ZM0.29217 26.1018V12.9328L9.12169 20.5423L0.658206 27.121C0.421782 26.8373 0.290648 26.4773 0.29217 26.1029V26.1018Z" fill="#E3E3E3" stroke="#5D5D5D" stroke-width="0.583333"/>
<path d="M13.5797 17.2471C12.6723 17.2425 11.7702 17.1004 10.9054 16.8254C9.52337 16.3631 8.49685 15.193 8.21862 13.7623C7.91354 12.2936 8.46936 10.7411 9.74269 9.50155C9.87951 9.36863 10.0216 9.24094 10.1689 9.11915C11.4723 8.02762 13.2301 7.64784 14.8681 8.10488C16.4537 8.61104 17.549 10.0607 17.604 11.7246C17.6635 12.6825 17.3513 13.6261 16.7326 14.3594C16.2553 14.9605 15.4822 15.2441 14.73 15.0948C14.4223 15.0306 14.1538 14.8446 13.9863 14.5781C13.8357 14.3195 13.7971 14.0111 13.8795 13.7236C14.2337 12.3846 14.5938 10.3502 14.5977 10.3299C14.6363 10.1099 14.8465 9.96252 15.0671 10.0012C15.2877 10.0398 15.4344 10.25 15.3958 10.4706C15.3807 10.5551 15.0259 12.5594 14.6632 13.9306C14.6377 14.0065 14.6442 14.0897 14.6815 14.161C14.7378 14.2383 14.8223 14.2907 14.9165 14.3057C15.3774 14.383 15.8429 14.1977 16.1251 13.8258C16.6056 13.2509 16.8465 12.5129 16.7974 11.7658C16.7581 10.4412 15.8894 9.28482 14.6285 8.87819C13.2524 8.49972 11.7781 8.82319 10.6867 9.74317C10.5564 9.85121 10.4301 9.96449 10.3083 10.0824C9.67918 10.6946 8.67361 11.9655 9.01273 13.5979C9.24056 14.7379 10.0543 15.6723 11.1528 16.054C13.052 16.6597 15.7814 16.7331 17.2184 14.9455C17.3624 14.7746 17.6177 14.7523 17.7886 14.8964C17.9542 15.0358 17.981 15.2807 17.8495 15.4529C16.7863 16.7756 15.1679 17.2484 13.581 17.2484L13.5797 17.2471Z" fill="#5D5D5D"/>
<path d="M12.1931 15.1468C11.7649 15.154 11.3473 15.0138 11.0108 14.7493C10.2337 14.1272 10.2121 13.0462 10.4301 12.3102C10.504 12.0653 10.6022 11.8283 10.7247 11.6037C11.0284 10.9908 11.5142 10.4866 12.1158 10.1599C12.8648 9.77158 13.7794 9.91891 14.3686 10.5226C14.6605 10.8428 14.8812 11.2219 15.0141 11.6345C15.0848 11.8466 14.9702 12.0758 14.7581 12.1465C14.5519 12.2153 14.3286 12.1092 14.2514 11.9055C14.1551 11.6011 13.996 11.3202 13.7833 11.0812C13.4396 10.7295 12.9047 10.6497 12.4739 10.8854C12.0229 11.1394 11.6608 11.5258 11.4356 11.992C11.3407 12.1668 11.2648 12.3508 11.2078 12.5413C11.05 13.0737 11.0854 13.7684 11.5194 14.1161C11.9941 14.4979 12.7947 14.3361 13.2458 13.9478C13.5816 13.6453 13.8697 13.2944 14.1015 12.9061C14.2193 12.7162 14.4694 12.6572 14.6592 12.7758C14.8491 12.8936 14.908 13.1437 14.7895 13.3336C14.5152 13.7907 14.1735 14.2039 13.7761 14.5594C13.3335 14.9333 12.7744 15.1402 12.1951 15.1461L12.1931 15.1468Z" fill="#5D5D5D"/>
</svg>
