<svg width="27" height="33" viewBox="0 0 27 33" fill="none" xmlns="http://www.w3.org/2000/svg">
<circle cx="13.5" cy="19.2568" r="13.2432" fill="#E2E2E2"/>
<path d="M11.7044 14.8041V16.4861H10.0225V19.0088H11.7044V26.5767H15.0676V19.0088H17.3041L17.5902 16.4861H15.0676V15.0149C15.0676 14.3339 15.1349 13.9724 16.1862 13.9724H17.5902V11.4417H15.3367C12.6464 11.4417 11.7044 12.703 11.7044 14.8049V14.8041Z" fill="#5D5D5D"/>
<path d="M7.08021 1.73168C8.77797 1.72286 10.1654 3.09713 10.1743 4.79493L10.1772 5.31185C10.5809 5.18905 10.9912 5.08096 11.4073 4.98832V4.78832C11.3941 2.41183 9.45075 0.488289 7.07433 0.500054C5.88612 0.505936 4.81114 0.994909 4.03469 1.77947C3.25823 2.56404 2.7803 3.64346 2.78619 4.83243L2.83839 15.0943C2.84721 16.7921 4.23468 18.1656 5.93244 18.1575C7.6302 18.1487 9.0037 16.7612 8.99561 15.0634L8.9434 4.80155C8.9412 4.30816 8.74635 3.84493 8.39562 3.49786C8.04489 3.1508 7.5802 2.9611 7.08683 2.9633C6.06847 2.96845 5.24422 3.80154 5.24937 4.81993L5.29128 13.0295L6.52287 13.0237L6.48169 4.81405C6.48022 4.47434 6.75448 4.19713 7.09418 4.19493C7.25741 4.19346 7.41476 4.25743 7.5302 4.37287C7.64637 4.48758 7.71255 4.6442 7.71255 4.80743L7.76475 15.0693C7.7699 16.0876 6.94565 16.9207 5.92729 16.9259C4.90893 16.931 4.07586 16.1068 4.07072 15.0884L4.01851 4.82655C4.00969 3.12875 5.38392 1.74124 7.08168 1.73241L7.08021 1.73168Z" fill="#5D5D5D"/>
</svg>
