<svg width="32" height="32" viewBox="0 0 32 32" fill="none" xmlns="http://www.w3.org/2000/svg">
<rect width="32" height="32" rx="4.26667" fill="#DE3030" fill-opacity="0.1"/>
<path d="M23.235 5.75H8.765C7.103 5.75 5.75 7.102 5.75 8.765V23.236C5.75 24.898 7.102 26.251 8.765 26.251H23.236C24.898 26.251 26.251 24.899 26.251 23.236V8.765C26.25 7.102 24.898 5.75 23.235 5.75ZM25.044 23.235C25.044 24.232 24.233 25.044 23.235 25.044H8.765C7.768 25.044 6.956 24.233 6.956 23.235V21.054L11.822 15.647L18.395 21.622L22.03 18.593L25.045 21.105L25.044 23.235ZM25.044 19.536L22.029 17.024L18.428 20.024L11.737 13.94L6.956 19.252V8.765C6.956 7.768 7.767 6.956 8.765 6.956H23.236C24.233 6.956 25.045 7.767 25.045 8.765L25.044 19.536Z" fill="#DE3030"/>
<path d="M20.2211 14.7937C21.8831 14.7937 23.2361 13.4417 23.2361 11.7787C23.2361 10.1157 21.8841 8.76367 20.2211 8.76367C18.5591 8.76367 17.2061 10.1157 17.2061 11.7787C17.2061 13.4417 18.5581 14.7937 20.2211 14.7937ZM20.2211 9.97067C21.2181 9.97067 22.0301 10.7817 22.0301 11.7797C22.0301 12.7777 21.2191 13.5887 20.2211 13.5887C19.2231 13.5887 18.4121 12.7777 18.4121 11.7797C18.4121 10.7817 19.2231 9.97067 20.2211 9.97067Z" fill="#DE3030"/>
</svg>
