<svg width="24" height="24" viewBox="0 0 24 24" fill="none" xmlns="http://www.w3.org/2000/svg">
<path d="M17.8593 8.31982L10.1797 15.9994C10.1351 16.044 10.0822 16.0794 10.0239 16.1036C9.96563 16.1277 9.90317 16.1401 9.8401 16.1401C9.77702 16.1401 9.71456 16.1277 9.65629 16.1036C9.59802 16.0794 9.54509 16.044 9.50051 15.9994L6.14066 12.6396C6.0506 12.5495 6 12.4274 6 12.3C6 12.1726 6.0506 12.0505 6.14066 11.9604C6.23072 11.8703 6.35288 11.8197 6.48025 11.8197C6.60761 11.8197 6.72977 11.8703 6.81983 11.9604L9.8401 14.9812L17.1802 7.64066C17.2702 7.5506 17.3924 7.5 17.5198 7.5C17.6471 7.5 17.7693 7.5506 17.8593 7.64066C17.9494 7.73072 18 7.85287 18 7.98024C18 8.10761 17.9494 8.22976 17.8593 8.31982Z" fill="#257AFB"/>
<path d="M24 12C24 18.6274 18.6274 24 12 24C5.37258 24 0 18.6274 0 12C0 5.37258 5.37258 0 12 0C18.6274 0 24 5.37258 24 12ZM1.64265 12C1.64265 17.7202 6.2798 22.3573 12 22.3573C17.7202 22.3573 22.3573 17.7202 22.3573 12C22.3573 6.2798 17.7202 1.64265 12 1.64265C6.2798 1.64265 1.64265 6.2798 1.64265 12Z" fill="#B6CEF2"/>
<path d="M12 24C8.8174 24 5.76515 22.7357 3.51472 20.4853C1.26428 18.2348 -6.63652e-07 15.1826 -5.24537e-07 12C-3.85421e-07 8.8174 1.26428 5.76516 3.51472 3.51472C5.76515 1.26428 8.8174 -1.83093e-07 12 -5.24537e-07L12 1.64265C9.25306 1.64265 6.61863 2.73387 4.67625 4.67625C2.73387 6.61863 1.64265 9.25306 1.64265 12C1.64265 14.7469 2.73387 17.3814 4.67625 19.3237C6.61863 21.2661 9.25306 22.3573 12 22.3573L12 24Z" fill="#257AFB"/>
</svg>
