<svg width="28" height="29" viewBox="0 0 28 29" fill="none" xmlns="http://www.w3.org/2000/svg">
<path d="M23.735 25.277V26.2601C23.735 27.307 22.8863 28.1557 21.8393 28.1557H2.79988C1.75292 28.1557 0.904216 27.307 0.904216 26.2601V6.10041C0.904216 5.05346 1.75292 4.20475 2.79988 4.20475H3.77207L23.735 25.277Z" fill="#E3E3E3" stroke="#5D5D5D" stroke-width="0.688315"/>
<path d="M6.16023 0.844157H25.1997C26.2466 0.844157 27.0953 1.69287 27.0953 2.73982V22.8995C27.0953 23.9464 26.2466 24.7951 25.1997 24.7951H6.16023C5.11328 24.7951 4.26457 23.9464 4.26457 22.8995V2.73982C4.26457 1.69287 5.11328 0.844157 6.16023 0.844157Z" fill="#D8D8D8" stroke="#5D5D5D" stroke-width="0.688315"/>
<path fill-rule="evenodd" clip-rule="evenodd" d="M10.6418 10.5787H7.84185C7.53276 10.5787 7.28174 10.3277 7.28174 10.0186C7.28174 9.70952 7.53276 9.4585 7.84185 9.4585H10.6418C10.9509 9.4585 11.2019 9.70952 11.2019 10.0186C11.2019 10.3277 10.9509 10.5787 10.6418 10.5787ZM24.0813 10.5787H12.8823C12.5732 10.5787 12.3221 10.3277 12.3221 10.0186C12.3221 9.70952 12.5732 9.4585 12.8823 9.4585H24.082C24.3911 9.4585 24.6421 9.70952 24.6421 10.0186C24.6421 10.3277 24.3911 10.5787 24.082 10.5787H24.0813ZM24.0813 13.9388H7.84185C7.53276 13.9388 7.28174 13.6878 7.28174 13.3787C7.28174 13.0696 7.53276 12.8185 7.84185 12.8185H24.0813C24.3904 12.8185 24.6415 13.0696 24.6415 13.3787C24.6415 13.6878 24.3904 13.9388 24.0813 13.9388ZM24.0813 17.2988H20.7213C20.4122 17.2988 20.1612 17.0478 20.1612 16.7387C20.1612 16.4296 20.4122 16.1786 20.7213 16.1786H24.0813C24.3904 16.1786 24.6415 16.4296 24.6415 16.7387C24.6415 17.0478 24.3904 17.2988 24.0813 17.2988ZM18.4815 17.2988H7.84185C7.53276 17.2988 7.28174 17.0478 7.28174 16.7387C7.28174 16.4296 7.53276 16.1786 7.84185 16.1786H18.4815C18.7906 16.1786 19.0416 16.4296 19.0416 16.7387C19.0416 17.0478 18.7906 17.2988 18.4815 17.2988ZM24.0813 20.6589H7.84185C7.53276 20.6589 7.28174 20.4079 7.28174 20.0988C7.28174 19.7897 7.53276 19.5386 7.84185 19.5386H24.0813C24.3904 19.5386 24.6415 19.7897 24.6415 20.0988C24.6415 20.4079 24.3904 20.6589 24.0813 20.6589Z" fill="#5D5D5D"/>
</svg>
