<svg width="28" height="33" viewBox="0 0 28 33" fill="none" xmlns="http://www.w3.org/2000/svg">
<path d="M23.4265 29.3788V30.331C23.4265 31.345 22.6045 32.167 21.5905 32.167H3.14984C2.13581 32.167 1.3138 31.345 1.3138 30.331V10.8054C1.3138 9.79133 2.13581 8.96932 3.14984 8.96932H4.09147L23.4265 29.3788Z" fill="#E3E3E3" stroke="#5D5D5D" stroke-width="0.666667"/>
<path d="M6.40473 5.71419H24.8454C25.8594 5.71419 26.6814 6.53622 26.6814 7.55023V27.0759C26.6814 28.0899 25.8594 28.9119 24.8454 28.9119H6.40473C5.39071 28.9119 4.56868 28.0899 4.56868 27.0759V7.55023C4.56868 6.53622 5.39071 5.71419 6.40473 5.71419Z" fill="#D8D8D8" stroke="#5D5D5D" stroke-width="0.666667"/>
<path d="M5.89208 2.658C7.94326 2.64734 9.61956 4.3077 9.63022 6.35893L9.63377 6.98345C10.1215 6.8351 10.6172 6.70451 11.12 6.59257V6.35094C11.104 3.47974 8.75609 1.15577 5.88497 1.16999C4.44941 1.17709 3.15066 1.76786 2.21257 2.71574C1.27448 3.66363 0.69706 4.96775 0.704166 6.40424L0.767238 18.8023C0.777898 20.8535 2.4542 22.513 4.50538 22.5032C6.55656 22.4925 8.21598 20.8162 8.20621 18.765L8.14313 6.36693C8.14047 5.77083 7.90506 5.21116 7.48132 4.79185C7.05758 4.37255 6.49615 4.14335 5.90007 4.14601C4.66972 4.15223 3.67389 5.15875 3.68011 6.38914L3.73075 16.3077L5.21872 16.3006L5.16897 6.38203C5.16719 5.97161 5.49854 5.63669 5.90896 5.63403C6.10617 5.63225 6.29627 5.70954 6.43574 5.84901C6.5761 5.9876 6.65605 6.17682 6.65605 6.37403L6.71912 18.7721C6.72534 20.0025 5.72951 21.009 4.49916 21.0152C3.26881 21.0214 2.26232 20.0256 2.2561 18.7952L2.19302 6.39713C2.18236 4.34589 3.84267 2.66955 5.89385 2.65889L5.89208 2.658Z" fill="#5D5D5D"/>
<path fill-rule="evenodd" clip-rule="evenodd" d="M10.7446 15.1429H8.03273C7.73336 15.1429 7.49023 14.8997 7.49023 14.6004C7.49023 14.301 7.73336 14.0579 8.03273 14.0579H10.7446C11.044 14.0579 11.2871 14.301 11.2871 14.6004C11.2871 14.8997 11.044 15.1429 10.7446 15.1429ZM23.7615 15.1429H12.9146C12.6152 15.1429 12.3721 14.8997 12.3721 14.6004C12.3721 14.301 12.6152 14.0579 12.9146 14.0579H23.7621C24.0615 14.0579 24.3046 14.301 24.3046 14.6004C24.3046 14.8997 24.0615 15.1429 23.7621 15.1429H23.7615ZM23.7615 18.3972H8.03273C7.73336 18.3972 7.49023 18.1541 7.49023 17.8547C7.49023 17.5554 7.73336 17.3122 8.03273 17.3122H23.7615C24.0609 17.3122 24.304 17.5554 24.304 17.8547C24.304 18.1541 24.0609 18.3972 23.7615 18.3972ZM23.7615 21.6516H20.5071C20.2077 21.6516 19.9646 21.4085 19.9646 21.1091C19.9646 20.8097 20.2077 20.5666 20.5071 20.5666H23.7615C24.0609 20.5666 24.304 20.8097 24.304 21.1091C24.304 21.4085 24.0609 21.6516 23.7615 21.6516ZM18.3377 21.6516H8.03273C7.73336 21.6516 7.49023 21.4085 7.49023 21.1091C7.49023 20.8097 7.73336 20.5666 8.03273 20.5666H18.3377C18.6371 20.5666 18.8802 20.8097 18.8802 21.1091C18.8802 21.4085 18.6371 21.6516 18.3377 21.6516ZM23.7615 24.906H8.03273C7.73336 24.906 7.49023 24.6629 7.49023 24.3635C7.49023 24.0641 7.73336 23.821 8.03273 23.821H23.7615C24.0609 23.821 24.304 24.0641 24.304 24.3635C24.304 24.6629 24.0609 24.906 23.7615 24.906Z" fill="#5D5D5D"/>
</svg>
