<svg width="32" height="32" viewBox="0 0 32 32" fill="none" xmlns="http://www.w3.org/2000/svg">
<rect width="32" height="32" rx="16" fill="#5D4AD0" fill-opacity="0.15"/>
<path d="M25.3715 20.6523C24.516 19.7734 22.0843 18.127 20.4906 18.127C20.1215 18.127 19.7992 18.209 19.5355 18.3789C18.7562 18.877 18.1351 19.2637 17.8363 19.2637C17.6722 19.2637 17.4965 19.1172 17.1097 18.7832L17.0453 18.7246C15.973 17.793 15.7445 17.5527 15.3285 17.1191L15.223 17.0078C15.1468 16.9316 15.0824 16.8613 15.0179 16.7969C14.6547 16.4219 14.391 16.1523 13.4593 15.0977L13.4183 15.0508C12.973 14.5469 12.68 14.2188 12.6625 13.9785C12.6449 13.7441 12.85 13.3633 13.3715 12.6543C14.0043 11.7988 14.0277 10.7441 13.4476 9.51953C12.9847 8.55273 12.2289 7.62695 11.5609 6.8125L11.5023 6.74219C10.9281 6.03906 10.2601 5.6875 9.51598 5.6875C8.68981 5.6875 8.00426 6.13281 7.64098 6.36719C7.61168 6.38477 7.58239 6.4082 7.55309 6.42578C6.73864 6.94141 6.14684 7.65039 5.92418 8.37109C5.5902 9.45508 5.36754 10.8613 6.96715 13.7852C8.34997 16.3164 9.60387 18.0156 11.5961 20.0605C13.4711 21.9824 14.3031 22.6035 16.1664 23.9512C18.2406 25.4512 20.2328 26.3125 21.6273 26.3125C22.9222 26.3125 23.9418 26.3125 25.3949 24.5605C26.9183 22.7207 26.2855 21.5957 25.3715 20.6523ZM24.6976 23.9277C23.5257 25.3457 22.8519 25.3457 21.6332 25.3457C20.4437 25.3457 18.598 24.5254 16.6996 23.1602C14.8832 21.8477 14.0746 21.2441 12.2523 19.375C10.3246 17.4004 9.11168 15.7539 7.77575 13.3105C6.36364 10.7266 6.52184 9.5957 6.80895 8.66406C6.96129 8.16602 7.41832 7.63281 8.03942 7.24609C8.06872 7.22852 8.09801 7.20508 8.13317 7.1875C8.44372 6.98828 8.95934 6.6543 9.52184 6.6543C9.99059 6.6543 10.4066 6.88867 10.805 7.375L10.8636 7.44531C12.3578 9.27344 13.5238 10.8906 12.6449 12.0859C12.0238 12.9238 11.6957 13.4922 11.7484 14.0781C11.7953 14.6465 12.1761 15.0742 12.7504 15.7188L12.7914 15.7656C13.7347 16.832 14.0043 17.1133 14.3793 17.4941C14.4437 17.5586 14.5082 17.6289 14.5843 17.7051L14.6898 17.8164C15.1234 18.2676 15.3636 18.5137 16.4652 19.4805L16.5297 19.5391C16.9984 19.9492 17.3441 20.248 17.848 20.248C18.3695 20.248 18.9437 19.9199 20.0336 19.2227C20.1449 19.1523 20.3031 19.1113 20.5023 19.1113C21.7738 19.1113 23.9652 20.5645 24.7328 21.3555C25.4359 22.0703 25.7875 22.6094 24.6976 23.9277Z" fill="#5D4AD0"/>
</svg>
