<svg width="24" height="24" viewBox="0 0 24 24" fill="none" xmlns="http://www.w3.org/2000/svg">
<rect width="24" height="24" rx="12" fill="currentColor"/>
<path d="M17.8593 8.49975L10.1797 16.1793C10.1351 16.2239 10.0822 16.2593 10.0239 16.2835C9.96563 16.3076 9.90317 16.3201 9.8401 16.3201C9.77702 16.3201 9.71456 16.3076 9.65629 16.2835C9.59802 16.2593 9.54509 16.2239 9.50051 16.1793L6.14066 12.8195C6.0506 12.7294 6 12.6073 6 12.4799C6 12.3526 6.0506 12.2304 6.14066 12.1403C6.23072 12.0503 6.35288 11.9997 6.48025 11.9997C6.60761 11.9997 6.72977 12.0503 6.81983 12.1403L9.8401 15.1612L17.1802 7.82059C17.2702 7.73053 17.3924 7.67993 17.5198 7.67993C17.6471 7.67993 17.7693 7.73053 17.8593 7.82059C17.9494 7.91065 18 8.0328 18 8.16017C18 8.28754 17.9494 8.40969 17.8593 8.49975Z" fill="white"/>
</svg>
