<svg width="25" height="24" viewBox="0 0 25 24" fill="none" xmlns="http://www.w3.org/2000/svg">
<g clip-path="url(#clip0_3160_53036)">
<path d="M12.2957 0.941218C11.7523 0.954329 11.088 0.892633 10.4332 1.02412C8.90317 1.33144 7.72478 2.13156 6.99484 3.53051C6.7041 4.0877 6.54485 4.69154 6.51015 5.32161C6.4955 5.5842 6.50321 5.84834 6.50436 6.1117C6.50436 6.17841 6.4874 6.2671 6.58688 6.28098C6.68868 6.29525 6.69177 6.20694 6.70565 6.13985C6.79742 5.70027 6.87762 5.25876 7.02569 4.8319C7.4163 3.70596 8.05639 2.7678 9.0628 2.10534C9.79043 1.62643 10.5986 1.37 11.4605 1.27746C12.1788 1.20034 12.8983 1.19687 13.6109 1.32296C15.3118 1.62411 16.5989 2.50212 17.3782 4.07035C17.8101 4.93987 18.0222 5.86453 18.0804 6.83123C18.1938 8.70793 17.7962 10.4778 16.9972 12.1691C16.5334 13.1508 15.9276 14.0284 15.1101 14.7472C14.2873 15.4709 13.3468 15.9094 12.2224 15.8708C11.4458 15.8442 10.7521 15.5797 10.1236 15.1405C8.93826 14.3122 8.16938 13.1562 7.58404 11.8614C7.5154 11.7094 7.44252 11.5571 7.39625 11.3979C7.34651 11.2274 7.2478 11.1727 7.08238 11.2001C6.73996 11.256 6.4018 11.244 6.08175 11.0983C5.45515 10.8133 5.14745 10.307 5.07148 9.63645C5.0202 9.18376 4.95696 8.73222 4.89449 8.28108C4.81198 7.68687 4.96429 7.1721 5.4085 6.75951C5.50759 6.66735 5.54615 6.57056 5.5423 6.43869C5.52263 5.77546 5.545 5.11185 5.68844 4.46404C6.03856 2.88463 6.91001 1.67077 8.30395 0.839421C9.29069 0.251769 10.365 0.00113062 11.506 0.0038298C12.1807 0.00537219 12.8555 -0.00773814 13.53 0.00730018C15.19 0.0447032 16.629 0.615774 17.7839 1.82964C18.4483 2.52795 18.8759 3.35738 19.1192 4.29168C19.327 5.08987 19.2692 5.89885 19.27 6.70591C19.27 6.95308 19.0575 7.11965 18.8003 7.11464C18.5605 7.11001 18.3796 6.93688 18.3684 6.68701C18.3499 6.27018 18.3723 5.85297 18.3422 5.43498C18.213 3.6512 17.3798 2.32821 15.7911 1.49224C15.0963 1.12669 14.3509 0.956257 13.5689 0.94199C13.1833 0.935049 12.7977 0.940833 12.2953 0.940833L12.2957 0.941218ZM8.87425 12.3129C8.88929 12.3742 8.88929 12.4004 8.90085 12.4197C9.39172 13.2379 9.97359 13.9798 10.8011 14.4811C11.723 15.0395 12.6874 15.1089 13.6672 14.6226C14.3443 14.2864 14.8699 13.7704 15.3157 13.1724C16.2739 11.888 16.8122 10.4292 17.0532 8.85677C17.1669 8.11527 16.8962 7.58391 16.2569 7.22916C15.9839 7.07762 15.7043 6.99973 15.3754 7.1158C14.8556 7.29973 14.3216 7.4424 13.7825 7.56541C12.9219 7.76206 12.0566 7.82067 11.1828 7.68687C10.5196 7.58546 9.88104 7.38803 9.26717 7.12081C8.9988 7.00397 8.79713 7.07531 8.60703 7.26233C8.19174 7.67106 7.91372 8.16617 7.70087 8.70215C7.67427 8.76924 7.66656 8.83711 7.67658 8.9096C7.73558 9.33684 7.83622 9.75599 7.95768 10.1678C8.01668 10.3679 8.03249 10.5904 8.22182 10.7504C9.10831 11.4985 10.1274 11.9165 11.2769 12.0472C11.4967 12.0723 11.6378 12.0383 11.7925 11.8679C12.0809 11.5498 12.4591 11.5378 12.8413 11.6782C13.174 11.8 13.4027 12.1586 13.4066 12.5257C13.4108 12.9387 13.1806 13.2834 12.7935 13.4435C12.4491 13.5857 12.0439 13.4982 11.7701 13.2071C11.6521 13.0818 11.5418 12.9838 11.3513 12.9765C10.7436 12.9534 10.1594 12.808 9.58645 12.6083C9.35316 12.5269 9.13453 12.4085 8.87425 12.3133V12.3129ZM7.57864 6.97698C7.79419 6.75565 8.00048 6.53509 8.25691 6.37429C8.58389 6.16916 8.93055 5.99332 9.3254 6.14332C9.71524 6.29139 10.0993 6.45643 10.4999 6.57403C11.189 6.77647 11.8923 6.88984 12.6107 6.81465C13.5219 6.71902 14.3987 6.46954 15.2636 6.17687C15.4283 6.12134 15.5894 6.06543 15.7699 6.09705C16.1921 6.17108 16.5897 6.30643 16.9483 6.54627C16.9845 6.57056 17.0161 6.61953 17.0636 6.60141C17.1257 6.5775 17.1025 6.51427 17.1044 6.46568C17.106 6.42751 17.101 6.38856 17.0963 6.35039C17.0266 5.79975 16.8924 5.26531 16.6703 4.75632C16.1956 3.66778 15.4279 2.87306 14.2946 2.48053C12.9608 2.01858 11.6193 2.03285 10.2971 2.52834C9.61691 2.78322 9.05933 3.21856 8.61243 3.79966C8.18865 4.35068 7.9303 4.97496 7.75756 5.6378C7.64458 6.07199 7.61219 6.52082 7.57903 6.97737L7.57864 6.97698ZM5.81145 8.05434C5.88008 8.59418 5.93831 9.14983 6.02584 9.70085C6.08715 10.0857 6.41491 10.3143 6.80667 10.2993C6.95976 10.2935 7.01798 10.243 6.97287 10.0853C6.92158 9.90637 6.87917 9.72475 6.84292 9.54237C6.70372 8.84868 6.62004 8.14804 6.61696 7.4397C6.61619 7.29047 6.55449 7.24844 6.41375 7.27274C6.02584 7.33945 5.79641 7.62749 5.81145 8.05434Z" fill="#5D5D5D"/>
<path d="M17.3561 23.9719C15.1134 23.9719 12.8704 23.9515 10.6282 23.9769C7.80751 24.0089 4.98687 24.0008 2.16622 23.9916C1.62021 23.9896 1.07421 23.9785 0.528586 23.9684C0.22435 23.963 0.0458178 23.82 0.0257668 23.5223C-0.0918405 21.7952 0.171523 20.1641 1.26585 18.7509C1.88165 17.9554 2.65554 17.3508 3.53509 16.8734C4.58199 16.3051 5.70215 15.9438 6.85817 15.6754C7.35289 15.5605 7.8561 15.4953 8.34966 15.3816C8.59645 15.3245 8.77845 15.407 8.92305 15.5967C9.35183 16.1582 9.77869 16.7211 10.2055 17.2841C10.8607 18.1494 11.515 19.0154 12.1698 19.8807C12.2006 19.9216 12.2392 19.9571 12.2677 19.9995C12.3337 20.0978 12.388 20.0905 12.4571 19.9979C12.7339 19.6278 13.0162 19.2618 13.2946 18.8928C14.1066 17.8158 14.9202 16.7404 15.7269 15.6596C15.9028 15.424 16.0998 15.3291 16.404 15.3839C17.4289 15.5674 18.4477 15.7733 19.4333 16.1153C20.7574 16.575 21.991 17.1954 22.9839 18.2134C23.7242 18.973 24.2286 19.8672 24.5035 20.8979C24.7306 21.7501 24.7314 22.6131 24.7029 23.4803C24.6917 23.8208 24.5093 23.9684 24.1422 23.9684C21.8803 23.9692 19.6184 23.9688 17.3565 23.9688V23.9711L17.3561 23.9719ZM17.7027 23.0341V23.0307C19.6562 23.0307 21.6096 23.0287 23.5626 23.0341C23.7462 23.0345 23.8133 22.9817 23.8067 22.7943C23.784 22.1569 23.7277 21.5245 23.5357 20.9133C23.393 20.4587 23.1983 20.0265 22.9341 19.6262C22.3257 18.7035 21.4777 18.0603 20.5064 17.5706C19.2736 16.949 17.951 16.6097 16.5988 16.3722C16.448 16.3456 16.3423 16.3911 16.2506 16.5137C15.4423 17.5933 14.6311 18.6707 13.8201 19.7485C13.4766 20.2054 13.1357 20.6642 12.786 21.1162C12.5184 21.4617 12.2172 21.4594 11.9427 21.1223C11.9265 21.1023 11.9114 21.0819 11.8956 21.061C10.7604 19.5607 9.62252 18.0626 8.49426 16.5569C8.36586 16.3853 8.23398 16.3444 8.03502 16.381C7.27693 16.5214 6.52772 16.6937 5.79315 16.9313C4.89587 17.2216 4.04177 17.5972 3.26402 18.1359C2.62778 18.5762 2.09257 19.113 1.69001 19.7789C1.13089 20.704 0.938862 21.7212 0.92151 22.7835C0.916883 23.0561 0.92151 23.0584 1.20338 23.0584C4.87196 23.0577 8.54053 23.0846 12.2091 23.0372C14.0399 23.0137 15.8715 23.033 17.7027 23.033V23.0341Z" fill="#5D5D5D"/>
</g>
<defs>
<clipPath id="clip0_3160_53036">
<rect width="24.7157" height="24" fill="white"/>
</clipPath>
</defs>
</svg>
