<svg width="18" height="14" viewBox="0 0 18 14" fill="none" xmlns="http://www.w3.org/2000/svg">
<path d="M17.2265 1.65685C16.5927 1.93846 15.9121 2.12854 15.1965 2.21308C15.9261 1.77585 16.4866 1.08338 16.751 0.258462C16.0677 0.662846 15.3117 0.957923 14.5067 1.11569C13.8616 0.429154 12.943 0 11.9258 0C9.97392 0 8.39246 1.582 8.39246 3.53392C8.39246 3.81069 8.42315 4.081 8.48346 4.33946C5.54615 4.19192 2.94215 2.78492 1.19862 0.646692C0.894923 1.169 0.720462 1.77585 0.720462 2.42362C0.720462 3.65023 1.34454 4.73146 2.29223 5.36577C1.71338 5.34692 1.16846 5.18862 0.691923 4.92369C0.691385 4.93823 0.691385 4.95385 0.691385 4.96785C0.691385 6.68069 1.90938 8.10923 3.52638 8.43392C3.23023 8.51415 2.91792 8.55777 2.59538 8.55777C2.36708 8.55777 2.14631 8.53569 1.93092 8.49477C2.38 9.898 3.68577 10.92 5.23169 10.9491C4.02285 11.8968 2.499 12.4627 0.843231 12.4627C0.557846 12.4627 0.276231 12.446 0 12.4132C1.56369 13.4147 3.42138 14 5.41746 14C11.9178 14 15.4732 8.61485 15.4732 3.94423C15.4732 3.79131 15.4689 3.63839 15.4625 3.48654C16.1533 2.98846 16.7521 2.36654 17.2265 1.65685Z" fill="#55ACEE"/>
</svg>
